<svg width="1318" height="134" viewBox="0 0 1318 134" fill="none" xmlns="http://www.w3.org/2000/svg">
<path d="M560.889 117.03C559.439 122.29 559.179 120.97 554.809 121.77C546.809 123.24 542.269 118.34 537.989 112.96C535.259 109.53 532.719 105.93 530.089 102.42C528.749 100.64 526.939 100.06 524.709 99.7902C501.379 96.9502 477.949 98.4302 454.569 98.0902C450.229 98.0302 448.809 99.0602 447.589 103.3C446.229 108.06 445.139 112.9 443.819 117.67C442.699 121.73 439.769 124.09 436.169 123.74C435.019 123.63 433.719 123.1 432.839 122.36C428.199 118.42 425.009 113.34 422.449 107.94C421.689 106.34 422.349 104.08 422.269 102.12C422.239 101.41 422.109 100.15 421.809 100.09C418.289 99.3002 416.669 96.2902 414.389 94.0602C413.929 93.6102 413.449 93.1702 412.889 92.6502C409.779 95.4102 406.779 98.1302 403.729 100.78C395.789 107.69 387.219 113.71 377.229 117.2C371.319 119.27 365.049 120.33 358.989 121.99C350.239 124.38 341.309 123.75 332.419 123.81C322.489 123.88 313.009 121.57 303.699 118.26C297.769 116.15 292.259 113.46 287.499 109.26C286.649 108.51 285.019 108.28 283.799 108.37C277.079 108.87 270.349 109.39 263.659 110.18C254.159 111.3 244.679 112.6 235.219 113.96C228.639 114.9 222.099 116.18 215.509 117.09C208.089 118.11 200.639 118.85 193.209 119.77C190.829 120.07 188.489 120.76 186.099 120.95C181.809 121.3 177.399 122.08 173.219 121.44C168.949 120.79 166.289 117.09 164.169 113.44C162.309 110.22 160.699 106.86 158.949 103.58C158.219 102.21 158.249 101.15 159.229 99.7302C162.849 94.5002 162.979 88.4202 161.469 82.7402C160.659 79.6802 157.409 77.2602 154.919 74.1202C153.859 75.6002 152.869 76.5302 152.419 77.6802C148.649 87.3902 141.339 93.9902 133.159 99.9002C124.019 106.51 113.809 111.08 103.429 115.24C97.2087 117.74 90.7587 119.68 84.4087 121.86C79.7887 123.45 75.2487 125.42 70.4987 126.48C66.4387 127.39 62.0087 128.01 57.9987 127.31C55.1387 126.81 52.2987 124.29 50.1787 122C47.6787 119.3 46.0887 115.78 43.8587 112.8C41.9387 110.25 41.8987 107.46 41.8987 104.53C41.8987 101.63 41.9687 98.7002 41.6187 95.8402C39.5087 78.3702 40.6987 60.8302 40.1487 43.3202C40.0487 40.2602 40.1487 37.2802 38.5987 34.3702C37.4387 32.2002 36.1087 31.9902 34.4287 33.0602C30.4587 35.5902 26.6187 38.3102 22.7287 40.9802C22.1187 41.4002 21.5387 41.8802 20.9887 42.3902C14.7887 48.1002 10.0387 46.4602 5.24873 41.4102C3.24873 39.3002 1.62873 36.5802 0.618726 33.8502C-0.811274 30.0102 0.328726 26.3602 3.09873 23.2602C6.81873 19.0902 11.4587 16.3202 16.4787 13.9702C24.1587 10.3802 32.3587 8.72024 40.5487 6.96024C42.3287 6.58024 44.1787 6.38024 46.0087 6.38024C54.4187 6.35024 62.8587 5.98024 71.2287 6.60024C78.2287 7.11024 85.2587 8.39024 92.0687 10.1202C98.4487 11.7402 104.779 13.9502 110.739 16.7302C118.569 20.3802 125.489 25.6102 132.089 31.2102C139.919 37.8602 145.609 46.2202 151.129 54.6902C152.489 56.7802 152.829 59.5002 153.829 61.8602C154.249 62.8402 155.119 64.3002 155.849 64.3402C157.609 64.4402 160.299 64.8502 160.539 62.2702C161.069 56.7702 161.479 51.2002 161.139 45.7002C161.009 43.7002 158.829 41.6102 157.189 39.9602C152.039 34.7902 146.609 29.9102 141.479 24.7202C138.869 22.0702 139.439 20.5202 143.039 20.0302C148.389 19.3002 153.769 18.7502 159.149 18.3002C160.949 18.1502 162.079 17.6802 162.669 15.8602C163.269 13.9802 163.979 12.0802 164.999 10.4002C166.519 7.90024 167.979 7.62024 170.359 9.33024C172.839 11.1102 175.079 13.2202 177.539 15.0402C178.529 15.7702 179.849 16.5902 180.969 16.5202C186.029 16.2202 191.069 15.6802 196.109 15.1002C209.749 13.5202 223.339 11.3002 237.149 12.6602C238.479 12.7902 240.019 13.3002 240.989 14.1602C246.149 18.7202 251.199 23.4002 256.159 28.1802C257.059 29.0402 258.119 31.0502 257.739 31.6302C257.069 32.6502 255.369 33.4002 254.049 33.5102C242.929 34.4402 231.799 35.2202 220.669 35.9802C209.209 36.7602 197.729 37.3802 186.279 38.2302C179.719 38.7102 178.649 40.0402 179.379 46.5802C179.809 50.4302 180.599 54.2502 181.309 58.0602C181.619 59.7202 182.799 60.3602 184.449 60.2002C186.769 59.9802 189.099 59.8802 191.399 59.5302C198.709 58.4302 206.029 57.3202 213.319 56.0502C217.079 55.3902 220.829 54.5702 224.479 53.5002C231.109 51.5502 237.849 52.1602 244.579 52.3002C245.279 52.3102 246.139 52.6002 246.639 53.0702C251.389 57.4402 256.089 61.8502 260.749 66.3102C261.309 66.8502 261.579 67.7202 261.879 68.4902C262.629 70.4402 262.309 71.8302 259.949 72.3402C255.499 73.3102 251.119 74.7102 246.619 75.3802C239.299 76.4702 231.909 77.0202 224.569 77.9902C214.679 79.2902 204.759 80.4602 194.969 82.3202C190.339 83.2002 185.629 84.7202 181.819 87.9502C179.499 89.9102 178.399 94.8002 180.069 97.2702C180.509 97.9102 181.719 98.3402 182.569 98.3402C184.979 98.3402 187.399 98.1702 189.789 97.8502C197.379 96.8502 204.949 95.7302 212.529 94.7002C219.209 93.8002 225.899 93.0502 232.569 92.0602C238.899 91.1102 245.159 89.7002 251.499 88.9202C257.969 88.1202 264.459 86.2702 271.029 87.9002C273.069 88.4002 274.879 89.7402 276.849 90.5802C278.229 91.1702 279.679 91.6402 281.129 92.0602C284.599 93.0702 288.189 93.7602 291.529 95.0802C294.609 96.2902 295.409 96.1002 296.249 92.8802C298.259 85.1802 296.949 77.7202 294.539 70.4002C293.249 66.5002 291.469 62.7502 289.819 58.9802C289.119 57.3902 289.259 56.2302 290.979 55.6102C293.679 54.6302 294.689 52.7002 294.859 49.9002C295.119 45.6002 295.789 41.3202 296.089 37.0102C296.289 34.0302 295.739 33.6702 292.999 34.5902C290.139 35.5602 287.549 34.9402 285.759 32.7402C283.639 30.1402 281.899 27.2202 280.189 24.3102C279.199 22.6202 278.369 20.7602 277.929 18.8702C277.699 17.8802 278.109 16.3202 278.819 15.6102C282.939 11.5402 287.889 8.65024 293.189 6.39024C308.229 -0.00976229 324.119 -0.809762 340.019 0.580238C354.859 1.88024 368.649 6.71024 379.119 18.0602C381.579 20.7302 383.319 24.1902 384.869 27.5302C386.489 31.0202 384.659 34.3702 382.699 37.0502C380.329 40.2902 377.199 42.9802 374.399 45.9002C374.169 46.1402 373.819 46.2802 373.639 46.5402C373.019 47.4502 372.449 48.3902 371.859 49.3202C372.859 49.6302 373.839 50.0302 374.859 50.2302C385.429 52.3002 395.819 54.8302 404.259 62.1202C408.479 65.7702 411.469 70.3502 413.809 75.3302C414.799 77.4402 416.149 78.1002 418.359 77.7502C422.299 77.1302 426.309 76.8702 430.189 76.0002C431.659 75.6702 433.329 74.3502 434.049 73.0102C436.179 69.1002 437.759 64.9002 439.759 60.9102C442.769 54.9302 445.929 49.0302 449.059 43.1202C452.739 36.1802 456.339 29.1902 460.199 22.3502C463.409 16.6602 466.799 11.0602 470.389 5.60024C472.699 2.08024 476.489 1.21024 480.209 2.94024C486.359 5.80024 491.959 9.51024 496.509 14.5802C497.259 15.4202 497.939 16.8502 497.769 17.8702C497.139 21.7402 498.799 25.0002 500.559 27.9902C507.579 39.8902 514.819 51.6602 522.119 63.4002C524.209 66.7702 526.749 69.8602 529.079 73.0802C530.999 75.7302 533.379 77.5202 536.729 78.2402C538.319 78.5802 539.679 80.0002 541.139 80.9602C542.299 81.7202 543.439 82.5102 545.129 83.6502C545.129 82.2202 545.079 81.3702 545.129 80.5302C545.529 74.6702 545.259 68.6502 546.539 62.9802C548.569 53.9702 552.739 45.7302 558.299 38.2602C563.539 31.2402 569.589 25.0002 576.529 19.6602C581.559 15.7802 590.739 17.3402 594.429 22.3302C595.879 24.2902 595.579 25.5902 593.979 27.2602C589.569 31.8602 584.989 36.3602 581.109 41.3902C577.499 46.0802 574.309 51.2002 571.659 56.4902C568.779 62.2202 566.239 68.2302 564.469 74.3802C562.199 82.2602 561.769 90.4402 564.069 98.4802C564.879 101.32 567.359 102.72 569.949 103.82C577.229 106.92 584.269 105.77 591.159 102.58C606.059 95.6902 617.629 85.0502 626.219 71.1902C633.999 58.6402 637.729 44.8802 637.929 30.1502C637.979 26.6602 637.839 23.1602 638.069 19.6902C638.209 17.5802 638.649 15.4202 639.379 13.4402C640.549 10.2702 643.549 9.22024 646.659 10.8002C652.269 13.6502 657.529 17.1602 660.719 22.6702C662.109 25.0802 662.859 28.4402 662.489 31.1802C661.519 38.3402 660.479 45.3702 661.209 52.6902C662.549 66.0702 663.039 79.5302 664.449 92.8902C665.209 100.03 667.229 107.02 668.539 114.11C669.059 116.95 669.279 119.85 669.469 122.74C669.599 124.78 668.369 125.67 666.379 125.83C660.909 126.28 657.279 123.15 654.079 119.43C650.079 114.78 648.449 108.95 646.659 103.28C645.909 100.92 646.239 98.2402 645.779 95.7602C645.199 92.6302 643.669 92.2002 641.369 94.5202C639.099 96.8202 636.969 99.2702 634.879 101.74C628.029 109.87 619.599 115.77 609.959 120.27C600.509 124.68 590.789 126.74 580.439 125.69C574.259 125.06 568.889 122.26 563.789 118.89C562.839 118.26 561.869 117.68 560.859 117.04L560.889 117.03ZM61.4687 88.6402C61.4087 88.6402 61.3387 88.6402 61.2787 88.6402C61.2787 92.7902 61.3087 96.9402 61.2687 101.09C61.2487 103.57 62.0887 104.39 64.4387 103.59C72.1187 100.97 79.9187 98.6102 87.3687 95.4502C95.8887 91.8402 104.089 87.4602 111.609 81.9702C120.079 75.7802 127.569 68.8902 130.959 58.4302C133.269 51.3202 131.549 45.1502 126.979 39.9702C121.589 33.8602 113.679 32.0402 106.129 30.2802C99.6887 28.7702 93.0387 27.9602 86.4287 27.4202C78.6487 26.7802 70.8287 26.6002 63.0187 26.5702C59.3287 26.5602 57.9987 28.2202 57.7687 31.8802C57.6387 33.8602 57.5787 35.8802 57.8287 37.8402C58.3587 42.0302 59.4587 46.1602 59.7087 50.3502C60.4587 63.1002 60.9087 75.8702 61.4687 88.6402ZM363.189 67.4402C356.989 67.9402 352.059 68.0502 347.229 68.8002C338.369 70.1902 329.579 72.0002 320.749 73.5502C315.639 74.4502 314.159 76.0002 313.889 81.1702C313.569 87.3402 313.989 93.4002 315.719 99.4002C316.629 102.58 317.319 103.65 320.679 103.87C324.079 104.09 327.529 104.42 330.909 104.13C337.769 103.54 344.759 103.22 351.379 101.55C357.729 99.9502 363.849 97.1402 369.769 94.2502C378.569 89.9402 385.889 83.8202 390.639 75.0102C392.229 72.0602 391.669 70.5602 388.229 70.1602C379.489 69.1302 370.719 68.2502 363.199 67.4402H363.189ZM495.119 77.8402C500.719 77.8402 504.879 77.8902 509.039 77.8002C510.049 77.7802 511.779 77.4702 511.889 77.0102C512.109 76.0402 511.699 74.7302 511.139 73.8002C506.839 66.5502 502.569 59.2702 498.029 52.1602C493.709 45.4002 489.129 38.8002 484.559 32.2002C482.939 29.8602 481.909 29.9102 480.539 32.4002C478.829 35.5002 477.339 38.7302 475.819 41.9402C473.409 47.0202 471.009 52.1002 468.689 57.2202C466.299 62.4902 464.039 67.8102 461.679 73.0802C460.729 75.2002 461.599 75.9502 463.649 76.0702C474.609 76.6802 485.579 77.3002 495.109 77.8402H495.119ZM343.329 17.8202C336.449 18.6602 330.499 19.2202 324.599 20.1602C320.329 20.8402 315.669 24.7702 315.629 30.0102C315.579 35.5602 314.939 41.1002 314.639 46.6502C314.459 49.9902 315.419 51.1202 318.719 50.4702C323.889 49.4502 329.029 48.1402 334.049 46.5302C342.029 43.9702 349.119 39.7202 355.439 34.2302C358.269 31.7702 360.909 29.1002 362.059 25.3902C363.009 22.3102 362.139 20.7102 358.969 20.1702C353.509 19.2302 348.009 18.5202 343.329 17.8302V17.8202Z" fill="white"/>
<path d="M1069.48 101.17C1070.19 98.6902 1071.04 96.2502 1071.58 93.7302C1072.16 91.0602 1072.52 88.3302 1072.85 85.6102C1073.48 80.4602 1071.35 76.0802 1068.8 71.8402C1067.99 70.4902 1067.07 69.1902 1066.42 67.7702C1065.64 66.0802 1066.25 64.9202 1068.12 64.4202C1073.58 62.9402 1073.6 62.9302 1073.89 57.3002C1074.07 53.9002 1074.23 50.4902 1074.24 47.0902C1074.24 44.8102 1073.54 44.4502 1071.58 45.4002C1068.67 46.8102 1064.54 45.5902 1062.2 41.7602C1059.81 37.8402 1058.1 33.4902 1056.31 29.2402C1056.01 28.5202 1056.54 27.0802 1057.15 26.3902C1061.34 21.7702 1066.48 18.4002 1072.26 16.1602C1077.5 14.1202 1082.82 12.0802 1088.28 10.8702C1094.34 9.53024 1100.59 8.64024 1106.79 8.43024C1116.35 8.10024 1125.96 8.19024 1135.51 8.69024C1145.57 9.22024 1155.48 11.1602 1164.93 14.7502C1169.55 16.5002 1173.88 19.0302 1178.3 21.1902C1178.09 18.6502 1177.77 16.1602 1177.71 13.6602C1177.69 12.5502 1177.96 11.2902 1178.52 10.3502C1181.33 5.56024 1183.53 5.22024 1189.2 8.84024C1193.78 11.7602 1198.33 14.9602 1200.37 20.2002C1204.64 31.1602 1214.34 36.9102 1222.61 44.0702C1226.63 47.5502 1230.61 51.0902 1234.46 54.7502C1236.13 56.3402 1237.46 56.4502 1239.16 54.9302C1248.03 47.0502 1256.93 39.2002 1265.83 31.3502C1268.51 28.9902 1271.22 26.6602 1273.86 24.2602C1274.51 23.6702 1275.27 22.9202 1275.42 22.1302C1276.23 17.8402 1278.82 14.8202 1282.57 13.1202C1286.77 11.2202 1291.19 9.76024 1295.63 8.48024C1298.04 7.78024 1300.48 8.23024 1302.61 10.1002C1306.33 13.3802 1310.32 16.3502 1314.04 19.6402C1315.24 20.7002 1316.05 22.2802 1316.8 23.7402C1318.49 27.0202 1317.27 29.7702 1313.21 31.9502C1309.64 33.8602 1305.86 35.4302 1302.44 37.5702C1296.69 41.1702 1290.99 44.8902 1285.56 48.9502C1274.47 57.2402 1264.58 66.8402 1256.36 77.9902C1251.16 85.0402 1246.38 92.4302 1241.78 99.9002C1237.67 106.59 1234.04 113.58 1230.25 120.46C1228.26 124.08 1226.49 127.82 1224.42 131.39C1222.89 134.03 1220.81 134.48 1218.19 133.04C1212.45 129.9 1207.43 125.86 1203.13 120.93C1202.32 120 1201.5 119.08 1199.93 118.15C1199.82 119.48 1199.56 120.81 1199.62 122.13C1199.8 125.89 1199.62 125.94 1195.89 125.99C1188.84 126.1 1181.92 125.25 1175.14 123.49C1169.53 122.03 1163.99 120.27 1158.5 118.39C1152.39 116.3 1146.32 114.05 1140.33 111.63C1135.34 109.62 1130.49 107.27 1125.59 105.05C1120.23 102.62 1114.9 100.14 1109.53 97.7302C1105.6 95.9702 1101.61 94.3502 1097.69 92.5602C1094.72 91.2102 1093.7 91.8502 1093.46 95.1202C1092.81 103.9 1092.13 112.67 1091.3 121.44C1090.87 125.99 1087.71 127.23 1083.76 124.71C1078.15 121.13 1074.65 115.84 1071.8 110.07C1071.09 108.63 1070.34 108.01 1068.79 108.17C1059.44 109.14 1050.08 110.01 1040.75 111.06C1034.88 111.72 1029.05 112.65 1023.2 113.46C1018.92 114.06 1014.65 114.71 1010.36 115.27C1003.35 116.18 996.319 116.96 989.319 117.93C981.749 118.98 974.229 120.32 966.649 121.27C962.959 121.73 959.109 122.12 955.469 121.6C950.769 120.94 948.039 117.17 945.789 113.32C943.959 110.18 942.279 106.94 940.749 103.65C940.299 102.68 940.119 101.05 940.639 100.28C942.669 97.2802 943.399 94.0302 943.809 90.4902C944.469 84.8102 942.639 80.3902 938.539 76.4902C936.489 74.5302 934.779 72.0602 933.459 69.5402C932.239 67.2102 933.109 65.8402 935.669 65.0402C936.849 64.6702 938.109 64.4602 939.339 64.3702C941.199 64.2302 942.349 63.4002 942.489 61.5102C942.819 57.1302 943.189 52.7502 943.339 48.3602C943.439 45.2002 942.029 42.6302 939.629 40.5302C936.379 37.6902 933.229 34.7502 930.019 31.8602C928.119 30.1502 926.869 30.4502 926.159 32.9702C925.309 36.0002 924.589 39.0702 924.039 42.1702C923.139 47.2302 922.459 52.3302 921.629 57.4102C920.979 61.3602 922.589 64.4802 925.019 67.4102C927.549 70.4602 930.089 73.5202 932.369 76.7502C933.839 78.8302 933.199 79.9202 930.569 80.0702C927.749 80.2302 924.889 79.9802 922.079 80.2402C921.069 80.3302 919.639 81.1902 919.299 82.0602C918.459 84.1802 917.739 86.5002 917.669 88.7502C917.369 98.5402 917.299 108.35 917.189 118.15C917.149 121.73 916.409 122.48 912.809 122.49C906.729 122.51 902.629 119.33 899.789 114.35C895.989 107.69 894.139 100.61 895.449 92.8602C895.819 90.6802 895.689 88.3802 895.489 86.1602C895.249 83.5402 893.949 82.4002 891.329 82.5802C879.619 83.3802 867.919 84.2202 856.229 85.1902C846.939 85.9602 837.669 87.0002 828.389 87.8202C824.769 88.1402 824.129 88.5102 823.969 92.0802C823.659 98.5502 823.529 105.03 823.289 111.5C823.199 113.9 823.239 116.35 822.779 118.69C822.439 120.42 821.649 123.18 820.599 123.42C818.479 123.9 815.669 123.59 813.819 122.48C808.979 119.59 806.469 114.6 803.659 109.87C800.709 104.91 801.359 99.8702 802.249 94.6802C802.589 92.6802 802.709 90.7202 800.799 89.3602C795.679 93.2102 790.699 97.0602 785.619 100.76C777.289 106.83 768.559 112.14 759.009 116.22C743.579 122.83 727.449 124.6 710.939 123.91C703.809 123.61 697.499 120.39 691.479 116.81C684.279 112.52 678.579 106.65 674.539 99.3202C672.749 96.0802 671.459 92.5502 670.069 89.1002C669.149 86.8002 668.499 84.3902 667.639 82.0702C664.209 72.7402 664.089 63.1702 666.119 53.6202C667.599 46.6302 670.609 40.1502 674.539 34.1402C680.689 24.7302 688.979 17.6902 699.069 12.9202C707.599 8.89024 716.609 6.35024 726.189 6.24024C733.859 6.15024 741.539 5.95024 748.909 8.54024C757.189 11.4402 765.229 14.7202 770.599 22.2602C773.629 26.5302 773.469 27.8602 770.449 31.9602C768.659 34.3802 767.329 37.2502 766.309 40.1002C765.109 43.4302 764.329 46.9302 763.599 50.4102C762.629 55.0302 761.909 59.7102 761.009 64.3502C760.519 66.8602 759.139 68.0002 756.309 68.0102C749.439 68.0502 745.379 64.0702 741.829 58.9502C737.529 52.7502 739.539 46.2202 740.599 39.7402C741.219 35.9802 742.149 32.2702 742.729 28.5102C742.819 27.9202 741.929 26.7502 741.299 26.5802C740.229 26.2902 738.989 26.4802 737.839 26.6402C731.059 27.6102 724.419 29.2002 718.359 32.4202C710.279 36.7102 703.379 42.4702 697.789 49.7702C693.779 55.0102 690.409 60.6402 688.369 66.8802C685.799 74.7302 684.439 82.5802 686.939 91.0102C688.389 95.8802 691.729 97.6802 695.359 99.6902C703.549 104.22 712.339 104.53 721.309 102.9C726.449 101.96 731.709 101.31 736.649 99.7402C742.149 97.9902 747.489 95.6002 752.669 93.0202C764.879 86.9202 774.859 77.6502 785.659 69.5402C786.819 68.6702 788.499 68.1902 789.969 68.0702C792.609 67.8602 795.299 68.1802 797.959 68.0702C802.539 67.8602 804.069 66.1402 804.249 61.6402C804.759 49.2002 805.089 36.7402 805.999 24.3302C806.339 19.7202 807.679 15.0602 809.269 10.6802C810.889 6.22024 813.629 7.24024 816.659 9.12024C824.629 14.0802 827.259 21.5202 826.059 30.5202C825.159 37.2502 823.899 43.9502 823.199 50.7002C822.879 53.7802 823.289 57.0002 823.779 60.0902C824.339 63.5802 825.939 64.7502 829.479 64.5602C842.029 63.8702 854.569 63.1702 867.109 62.3202C876.579 61.6802 886.019 60.7802 895.479 60.0502C897.229 59.9202 898.399 59.1402 898.709 57.4902C899.149 55.1402 899.569 52.7402 899.619 50.3602C899.789 41.8502 901.029 33.4902 903.339 25.3302C905.399 18.0202 907.799 10.8102 910.149 3.59024C911.259 0.180241 914.689 -0.919759 918.289 0.960241C923.569 3.71024 927.709 7.76024 930.999 12.6402C931.649 13.6002 931.899 14.9802 931.939 16.1802C931.999 17.8902 932.699 18.6302 934.359 18.5602C936.859 18.4502 939.369 18.4902 941.839 18.1502C942.669 18.0302 943.629 17.0902 944.079 16.2702C945.179 14.2502 945.909 12.0302 946.989 10.0002C948.089 7.92024 949.949 7.86024 951.649 9.09024C954.259 10.9802 956.639 13.1802 959.229 15.0902C960.219 15.8202 961.509 16.5202 962.679 16.5502C965.749 16.6302 968.859 16.5102 971.909 16.1402C979.089 15.2702 986.219 13.8202 993.429 13.3202C1002.13 12.7202 1010.88 12.8202 1019.6 12.7602C1020.64 12.7602 1021.88 13.4402 1022.7 14.1802C1027.82 18.7902 1032.9 23.4402 1037.85 28.2202C1038.74 29.0802 1039.78 31.1102 1039.39 31.6802C1038.7 32.6902 1037.01 33.4202 1035.67 33.5302C1024.47 34.4502 1013.26 35.2402 1002.04 36.0102C990.659 36.7902 979.269 37.4102 967.899 38.2602C961.359 38.7502 960.309 40.0702 961.049 46.6502C961.479 50.5002 962.279 54.3102 962.989 58.1302C963.299 59.8102 964.519 60.3902 966.149 60.2302C968.549 59.9902 970.969 59.8702 973.349 59.5202C980.499 58.4502 987.649 57.3702 994.769 56.1202C998.609 55.4502 1002.44 54.6102 1006.18 53.5302C1012.81 51.6002 1019.55 52.2002 1026.28 52.3502C1026.98 52.3702 1027.83 52.6702 1028.34 53.1302C1033.08 57.5002 1037.8 61.9002 1042.43 66.3802C1043.09 67.0202 1043.33 68.1202 1043.67 69.0402C1044.25 70.6302 1043.89 71.7802 1042.05 72.2102C1037.37 73.2902 1032.75 74.7702 1028.01 75.4502C1016.81 77.0402 1005.58 78.4602 994.319 79.5602C986.259 80.3402 978.319 81.6302 970.659 84.1802C967.889 85.1002 965.329 86.8402 962.919 88.5402C960.849 90.0102 960.249 95.2302 961.759 97.3302C962.219 97.9702 963.419 98.3802 964.279 98.3702C966.859 98.3402 969.439 98.1402 971.999 97.8302C982.899 96.5102 993.819 95.3102 1004.68 93.7202C1014.46 92.2902 1024.16 90.2802 1033.94 88.7602C1039.03 87.9702 1044.21 87.1802 1049.33 87.3002C1056.36 87.4602 1061.05 92.2202 1065.41 97.1202C1066.51 98.3502 1067.45 99.7102 1068.47 101.01C1068.78 101.07 1069.1 101.13 1069.41 101.2L1069.48 101.17ZM1197.94 111.43C1198.21 111.32 1198.49 111.2 1198.76 111.09C1199.92 108.73 1200.93 106.27 1202.26 104.01C1208.91 92.7102 1216.37 81.9602 1224.86 71.9402C1226.16 70.4002 1226.44 68.8402 1225.11 67.2302C1223 64.6702 1221.06 61.9302 1218.66 59.6802C1212.18 53.6202 1205.5 47.7702 1198.88 41.8502C1196.13 39.3802 1193.35 36.9502 1190.59 34.4902C1190.33 34.5702 1190.06 34.6602 1189.8 34.7402C1189.8 35.8002 1189.65 36.8902 1189.83 37.9302C1190.51 42.0002 1189.35 45.4202 1186.53 48.3902C1178.29 57.0902 1167.52 61.4802 1156.75 65.8602C1152.45 67.6102 1148.09 69.2002 1143.69 70.6802C1138.19 72.5202 1132.63 74.1702 1127.1 75.9002C1124.14 76.8302 1121.18 77.7802 1117.53 78.9402C1118.91 80.1602 1119.63 81.1102 1120.58 81.5702C1122.43 82.4802 1124.4 83.1602 1126.34 83.8902C1132.31 86.1402 1138.24 88.5102 1144.27 90.5702C1151.71 93.1202 1159.15 95.7902 1166.77 97.7002C1174.25 99.5702 1181.96 100.54 1189.57 101.94C1192.66 102.51 1194.84 104.02 1195.71 107.29C1196.1 108.76 1197.19 110.05 1197.96 111.42L1197.94 111.43ZM1128.75 27.9502C1122.62 28.6102 1115.57 29.1802 1108.6 30.2302C1106.15 30.6002 1103.68 31.8102 1101.56 33.1702C1097.27 35.9202 1095.99 40.4002 1095.65 45.1702C1095.32 49.8002 1095.23 54.4502 1094.81 59.0702C1094.57 61.7202 1095.06 62.5202 1097.68 61.9102C1100.58 61.2402 1103.44 60.3502 1106.28 59.4402C1111.48 57.7702 1116.66 56.0302 1121.83 54.2902C1126.46 52.7302 1131.14 51.3102 1135.68 49.5002C1143.29 46.4802 1150.87 43.3502 1158.32 39.9602C1161.29 38.6102 1164 36.6102 1166.64 34.6402C1168.11 33.5502 1167.78 32.3502 1165.85 31.9002C1163.58 31.3802 1161.34 30.6002 1159.04 30.3902C1149.27 29.5002 1139.48 28.7802 1128.75 27.9202V27.9502Z" fill="white"/>
</svg>
