<?xml version="1.0" encoding="UTF-8"?>
<svg id="Layer_1" data-name="Layer 1" xmlns="http://www.w3.org/2000/svg" version="1.1" viewBox="0 0 237 214.1">
  <defs>
    <style>
      .cls-1 {
        fill: #fff;
        stroke-width: 0px;
      }
    </style>
  </defs>
  <path class="cls-1" d="M73.9,100.5c-1,.8-1.9,1.8-3,2.4-3.4,1.7-6.7,3.2-10.7,3-5.9-.3-11.8-.1-17.7-.1-1.4,0-1.7.4-1.1,1.6.4.7.9,1.4,1.5,2.1,4.2,4.8,9.3,8.2,15,11.1,5.4,2.7,10.7,5.6,16.5,7.4,5.3,1.6,10.7,2.7,16.3,2.3,4.5-.4,8.4-2.3,11.9-5,1.6-1.3,1.6-2.7,0-4.1-1-.9-2.2-1.7-3.4-2.4-2.2-1.3-2.6-2.3-1.6-4.7,1.1-2.8,1.7-5.8,1.7-8.8,0-2.2-.9-2.7-2.8-1.8-3.7,1.8-6.1,4.6-6.9,8.7-.2.8,0,1.7,0,2.5.1.8,0,1.4-1,1.4-4.4,0-9.8-2.1-11.4-7-1.3-3.8.1-7.7,3.8-10.2,1.3-.9,2.8-1.5,4.3-2.3,1.7-.9,3.4-1.6,5-2.5,3-1.7,4.9-4.3,5.7-7.5,1.5-6.1,2.8-12.3,4.2-18.4,1.5-6.6,1.3-13.3,1.9-20,.2-2.7.7-5.4,1.3-8,.8-3.2,2.7-4.1,5.9-3.3,5.7,1.6,11.4,2.5,17.3,1.4,6.9-1.3,12.8-4.4,18-9.1,3.2-2.9,6.1-6.1,9.1-9.2,4.6-4.7,9.4-9,14.8-12.7,4.6-3.2,9.7-4.8,15.1-5.7,11-1.8,20.7,1.2,29.5,7.6,4,2.9,6.8,7,9.2,11.3,2.4,4.3,4.4,8.7,5.9,13.4.5,1.5.7,2.9,0,4.3-.9,2-2.6,2.2-3.8.4-.7-1-1-2.2-1.6-3.3-1.9-3.7-3.6-7.5-5.8-11-4.5-7.2-11.3-11.2-19.7-12.1-10.6-1.1-20,1.9-27.6,9.7-8.1,8.2-10.5,21.1-6,31.7,4,9.3,11,15.6,20.2,19.5,4.6,1.9,9.6,3.2,14.3,5,9.5,3.6,19.3,6.5,28.4,11,2.9,1.4,5.6,3.2,8.3,5,2.4,1.7,3.1,4.7,1.4,7.4-1.3,2.2-3,4.1-4.8,5.9-15.9,16.6-35,28-56.6,35.4-8.3,2.9-16.8,5.1-25.5,6.5-19,3.2-38,3.1-56.9-1-12.5-2.7-24.4-6.9-35.5-13.2-5-2.9-9.8-6-14-10-3.5-3.4-6.4-7.2-8.8-11.4-1.9-3.3-4.6-5.8-7.4-8.2-.2-.2-.7-.3-.9-.2-.2.1-.4.5-.4.9-.2,1.7.5,3.1,1.4,4.5,1,1.5,1.9,3,2.7,4.6,2.8,5.6,6.9,10.3,11.8,14,6.6,5,13.4,9.6,20.1,14.3,6,4.3,12.2,8.2,19.1,10.9,4.3,1.7,8.8,3.1,13.3,4.3,7.4,2.1,15,3.4,22.7,3.5,1.4,0,1.9.5,1.9,2.1,0,4.5,0,8.9,0,13.4,0,11.5,0,23-.1,34.6,0,.6.4,1.6-.7,1.8-1.2.2-2.5-.4-2.8-1.4,0-.2-.1-.5-.2-.7-.2-3.4-1.5-6.4-2.9-9.5-2.1-4.5-2.7-9.2-2.2-14.1.3-2.6,1.2-4.8,2.9-6.8,1.7-1.9,2.9-4.1,3.2-6.7.4-3.5-1-6.1-3.6-8.3-.5-.4-1.2-.6-1.9-.7-2.8-.5-5.5-.9-8.3-1.3-5.7-.8-10.9-3-16.3-4.6-2.8-.8-5.6-1.6-8.5-2.3-4.2-1-6.3.7-6.4,5,0,3,.8,5.8,2.6,8.4,1.6,2.2,3,4.4,4.4,6.7.2.3.4.8.5,1.2.2,1.2.2,2.4-1,3-1.2.7-2.2,0-2.9-.9-2.2-2.8-4.5-5.5-6.3-8.5-8.1-13.1-17-25.6-27.9-36.6-8.5-8.6-16.5-17.7-23.4-27.6-2.3-3.3-4.1-6.8-6.2-10.2-1.3-2.1-3-3.8-5.4-4.7-1.8-.6-2.8-1.9-3.3-3.8-.3-1.2-.7-2.4-1.3-3.4-.8-1.5-.9-3-.4-4.6.3-.9.7-1.8,1.8-1.9,1.1-.1,1.9.4,2.6,1.3,1,1.4,2,2.9,3.1,4.2,4.7,5.6,10.4,9.9,16.9,13,1.9.9,4.2,1.2,6.3,1.3,9.5.2,19,.2,28.6.3,4.5,0,9,0,13.5-.1.2,0,.4,0,.6.1,0,.1.2.3.3.4ZM137.7,104.2c-2.5,0-4.8.6-6.1,1.6-1.8,1.3-1.8,3.1,0,4.4,2.7,2.1,9,2.1,11.7,0,1.7-1.3,1.7-3.1,0-4.4-1.7-1.3-3.8-1.4-5.5-1.6Z"/>
  <path class="cls-1" d="M205,22.6c-3.5.4-6,1.9-7.5,4.8-.9,1.7-1.1,3.6-.8,5.5.5,3.4,3.4,6.4,6.9,6.8,5.6.6,8.6-2.4,9.9-7.6,4.1,2.5,3.3,16.2-1.3,22.8-7.6,11-22.7,13.4-33.1,5.2-10.3-8.1-11.8-23.3-3.2-33.1,7.2-8.3,22.6-10.8,29.2-4.4Z"/>
  <path class="cls-1" d="M12.1,65.3c-.2-2.5-.1-4.6,1.9-6.2.8-.6.6-1.4.1-2.2-.6-1.2-1.3-2.3-1.8-3.5-.5-1-.2-1.4.9-1.4,4.7.3,8.8-1.6,12.6-4.1,2.7-1.8,5.1-4.1,8.3-5.2,8-2.7,16.3-3.8,24.7-3.2,7.4.5,14.6,2,21.6,4.5,2.6.9,5.4,1.4,8,2.5,2.2,1,4.3,2.3,6.3,3.8,1.9,1.4,2.1,3,.7,4.9-.7,1-1.7,1.9-2.8,2.5-2.7,1.5-5.7,2.1-8.8,2.1-7.5,0-15,0-22.4,0-8.1,0-16.1.4-24.1,1.5-5.3.7-10.6,1.4-15.9,2.2-2.3.3-4.5,1-6.7,1.4-.8.2-1.7.2-2.6.3Z"/>
  <path class="cls-1" d="M15.5,19.3c.4-.8.7-1.6,1.1-2.3,1.9-3.4,4.9-5.6,8-7.8C31.9,4,40.1,1.4,48.8.5c11.6-1.3,23.1.1,34.3,3.4,7.1,2.1,14,4.6,20.5,8,3.4,1.8,5.8,4.4,7.1,8,1.6,4.4-1.1,8.2-5.8,8.3-2.9,0-5.6-.9-7.7-2.8-4.5-4-9.3-7.4-14.6-10.2-12.3-6.4-25.3-9.1-39.1-7.7-8.8.8-16.7,4-24,8.9-1,.7-1.8,1.5-2.7,2.3-.3.3-.6.5-.9.8-.1,0-.2-.2-.4-.2Z"/>
</svg>