<svg width="22" height="18" viewBox="0 0 22 18" fill="none" xmlns="http://www.w3.org/2000/svg">
<path d="M21.2776 2.22757C20.4995 2.57297 19.6633 2.80559 18.7858 2.91044C19.6819 2.37384 20.37 1.52355 20.6934 0.510259C19.8555 1.00721 18.9267 1.36848 17.9382 1.5632C17.1478 0.719967 16.0191 0.193054 14.7714 0.193054C11.9703 0.193054 9.91197 2.80647 10.5446 5.51945C6.93994 5.33882 3.74323 3.61182 1.60298 0.986947C0.466323 2.93687 1.0135 5.48773 2.94493 6.77945C2.23474 6.75655 1.56508 6.56182 0.9809 6.23669C0.933319 8.24652 2.37395 10.1268 4.46046 10.5454C3.84984 10.711 3.18107 10.7498 2.50084 10.6194C3.05242 12.3428 4.6543 13.5968 6.55401 13.632C4.73008 15.0621 2.43211 15.7009 0.130615 15.4295C2.05059 16.6604 4.33182 17.3786 6.78133 17.3786C14.8366 17.3786 19.3875 10.5753 19.1127 4.47356C19.9603 3.86118 20.6961 3.09724 21.2776 2.22757Z" fill="#D1CCB8"/>
</svg>
